<svg height="512pt" viewBox="-66 0 512 512" width="512pt" xmlns="http://www.w3.org/2000/svg"><path d="m380.773438 190.394531c0 57.550781-29.421876 102.441407-62.191407 147.140625l-128.195312 174.464844-128.199219-174.464844c-32.769531-44.699218-62.1875-89.589844-62.1875-147.148437 0-104.976563 85.398438-190.386719 190.367188-190.386719h.800781c104.617187.429688 189.605469 85.679688 189.605469 190.394531zm0 0" fill="#ff623f"/><path d="m380.773438 190.394531c0 57.550781-29.421876 102.441407-62.191407 147.140625l-128.195312 174.464844v-512h.78125c104.617187.429688 189.605469 85.679688 189.605469 190.394531zm0 0" fill="#e30020"/><path d="m303.492188 190.386719c0 62.371093-50.742188 113.105469-113.105469 113.105469s-113.105469-50.734376-113.105469-113.105469c0-62.363281 50.742188-113.097657 113.105469-113.097657s113.105469 50.734376 113.105469 113.097657zm0 0" fill="#fff"/><path d="m303.492188 190.386719c0 62.371093-50.742188 113.105469-113.105469 113.105469v-226.203126c62.363281 0 113.105469 50.734376 113.105469 113.097657zm0 0" fill="#d6d6d8"/></svg>